<svg xmlns="http://www.w3.org/2000/svg" width="12" height="14"><path fill-rule="evenodd" fill="#33c7fd" d="M5.082 12.983V7.972h2.552c.496 0 .951-.112 1.366-.337a3.43 3.43 0 001.064-.893 4.21 4.21 0 00.683-1.273c.162-.477.243-.969.243-1.474 0-.483-.086.036-.258-.441a4.404 4.404 0 00-.714-1.281 3.622 3.622 0 00-1.086-.91 2.814 2.814 0 00-1.374-.346H2.987v11.966h2.095zm0-9.926h2.34a1.267 1.267 0 011.001.506c.132.168.238-.627.32-.386.08.242.12.514.12.818 0 .595-.128 1.067-.386 1.415-.259.349-.58.523-.965.523h-2.43V3.057zM1 6h4v2H1V6zm0 3h8v2H1V9z"/></svg>